<mxfile host="app.diagrams.net" modified="2024-06-09T12:54:39.135Z" agent="Mozilla/5.0 (Windows NT 10.0; Win64; x64) AppleWebKit/537.36 (KHTML, like Gecko) Chrome/125.0.0.0 Safari/537.36" version="24.5.2" etag="IMFcBcKYEXaGNeSmTIqK" type="github">
  <diagram name="PÃ¡gina-1" id="P8PAyR8pdrXWjG6nBY6u">
    <mxGraphModel>
      <root>
        <mxCell id="0" />
        <mxCell id="1" parent="0" />
      </root>
    </mxGraphModel>
  </diagram>
</mxfile>
